<svg xmlns="http://www.w3.org/2000/svg" viewBox="0 0 720.65 343.06"><defs><style>.cls-1{fill:#265f51;}</style></defs><g id="Layer_2" data-name="Layer 2"><g id="Layer_1-2" data-name="Layer 1"><path class="cls-1" d="M151.38,28.42c3.32-10.68,2.47-7.93,4.72-14.36h1.19L156.06,55q-.24,14.73.12,29.9t.95,29.76q.6,14.6,1.7,28t2.35,24.54a152.92,152.92,0,0,0,3.72,21.15,39,39,0,0,0,5.54,12.78,18.13,18.13,0,0,0,8.13,6.52,38.55,38.55,0,0,0,11.3,2.34,23.38,23.38,0,0,1,9.64,2.73c2.89,1.57,4.24,3.78,4,6.64l-.29,4.07a8.1,8.1,0,0,1-2.21,5.17,14.44,14.44,0,0,1-5.26,3.41,30.14,30.14,0,0,1-7.4,1.83A42.81,42.81,0,0,1,180,234a38.82,38.82,0,0,1-10.6-2.08,23.17,23.17,0,0,1-7.76-4.65,25.71,25.71,0,0,1-5.51-7.46A64.3,64.3,0,0,1,152,209.32l-.41,0q-.15,16.58-.33,27.62t-.57,16.76q-2.37,33.2-16.07,56-10.2,16.68-32.54,25.74a109.13,109.13,0,0,1-49.06,7.36q-26.49-1.87-40.52-16.19T.18,288.82Q2.43,257,28.36,223.66L32.09,226q-18.38,28-19.58,44.88-1.24,17.52,11.84,29.31Q38,312,61.07,313.63q28.53,2,57.33-11.48,12.72-6.06,16.58-11.31,3.87-5.67,4.79-18.5.82-11.61,1.53-41.56c.46-20,2.57-47,3-80.42.22-16.5-4.08-33.11-4.57-45.14s-.71-23.19,1-31.13c2.73-12.82,4.24-18.39,6-26.79"/><path class="cls-1" d="M279.6,234.56h-96a3.79,3.79,0,0,1-3.79-3.79V207.6H279.6Z"/><path class="cls-1" d="M355.26,234.56H255.48v-27h99.78Z"/><path class="cls-1" d="M421.41,234.56H331.13v-27h99.78v17.46A9.5,9.5,0,0,1,421.41,234.56Z"/><path class="cls-1" d="M512.37,232.87a1.61,1.61,0,0,1-1.77,1.49l-10.74.2q-25.32,0-37.33-21.48a1.7,1.7,0,0,0-2.81-.23,64.38,64.38,0,0,1-13,12.77q-12.21,8.94-24.12,8.94h-6.36a1.69,1.69,0,0,1-1.68-1.69V213.71c0-4.52,3.52-5.53,8-5.53l3.53,0h.11c12.39-.86,13-4.49,20.78-8.21s12.91-8,15.19-12.73l4.62-10,5.72-13.34a1.68,1.68,0,0,1,2.74-.53h0a1.7,1.7,0,0,1,.39,1.79l-2.09,5.53a1.68,1.68,0,0,0-.09.32c-.49,2.91-.92,5.48-1.31,7.72a39.18,39.18,0,0,0-.59,6.29,1.73,1.73,0,0,0,.18.8q4.08,8.34,8.45,12.12,8.34,7.61,23.53,7.6h6.95a1.69,1.69,0,0,1,1.69,1.69ZM466.71,284l-13.34,20.41a1.7,1.7,0,0,1-2.25.54l-24.28-13.8a1.7,1.7,0,0,1-.56-2.42l13.87-20.28a1.69,1.69,0,0,1,2.24-.51l23.75,13.67A1.68,1.68,0,0,1,466.71,284Zm40.2,0-13.33,20.4a1.7,1.7,0,0,1-2.25.54L467,291.14a1.69,1.69,0,0,1-.58-2.39l13.2-20.26a1.69,1.69,0,0,1,2.24-.55l24.44,13.69A1.67,1.67,0,0,1,506.91,284Z"/><path class="cls-1" d="M592.12,10.28q-.37,7.76,1.49,54.43T592.79,129q-6.85,54.81-26.59,77.81Q547,229.13,511.26,234.27a1.91,1.91,0,0,1-2.16-1.89l.13-25.18a1.9,1.9,0,0,1,1.7-1.86q35.9-3.9,51.25-19.26,15.71-15.69,17.8-48.4v-.13q.13-13.55-1.42-38.88t-2-35.82q0-11.61,5.29-34.7T590.4.6c.9-.89,1.47-.79,1.72.3S592.36,5.12,592.12,10.28Z"/><path class="cls-1" d="M665.76,111.7q4.32-9.09,28.29,11.47t26.14,49.44q2.16,28.89-5.73,42.29T666.8,233.29q-39.76,5-42.89-10.5-9.52-22.18,8.79-73-6.56,48.56,6.33,53t32.54,1q19.65-3.51,32.16-11.84,8.34-5.07,1.27-15.42t-20.78-20.62q-13.69-10.27-18.83-11.47t-5.14-6Q660.25,126.29,665.76,111.7Z"/></g></g></svg>