<svg xmlns="http://www.w3.org/2000/svg" viewBox="0 0 593.67 148.32"><defs><style>.cls-1{fill:#231f20;}</style></defs><g id="Layer_2" data-name="Layer 2"><g id="Layer_1-2" data-name="Layer 1"><path class="cls-1" d="M0,145.71v-3l5.4-.43c8.49-.68,9.08-7.35,9.08-15.13V27.67c0-8-1-13.95-9.08-14.92L0,12.1v-3H62.05c41.51,0,72.85,27.24,72.85,68.75,0,41.07-31.13,67.88-72.85,67.88Zm44.54-6.27H53c27.89,0,49.72-27.24,49.72-61.62C102.69,43,80.86,15.34,53,15.34H44.54Z"/><path class="cls-1" d="M250.35,139v1.46l-19.89,6.05c-11.46,3.48-21.43-3.31-21.7-14.56a38.83,38.83,0,0,1-31.48,16c-16.34,0-27.67-9.94-27.67-24.21,0-10.23,7.23-18.63,21-23.93a118.88,118.88,0,0,1,36.32-6.55V76.75h-.07C205.59,53.56,186,45.57,163.79,59c10.16-.73,14.73,7.49,14.73,13.87,0,6.92-5.7,14-13.77,14-8.27,0-14.05-7.21-14.05-14,0-13.33,18.48-26.16,43-26.16,26.71,0,40,9.78,41.2,29.62H235v48.21c0,8.77,2.28,11.59,10.38,13.35Zm-45.61-7.42c.57-.78,1.3-1.65,2.15-2.65V97.08A60.08,60.08,0,0,0,192.2,100c-8.64,2.67-13.84,12.21-13.84,21.34,0,9.28,5.88,16.64,13.4,16.64,5,0,8.79-1.91,13-6.45Z"/><path class="cls-1" d="M256.41,145.71V141.6l6-1.29c7.11-1.53,8-6.49,8-14.49V33.72c0-10.16-1.14-15.92-8-16.21l-5.19-.22V14.92L298.57,0V125.82c0,8,1.1,13,8.21,14.49l6.05,1.29v4.11Z"/><path class="cls-1" d="M374.24,148.32c-29.57,0-49.29-18-49.29-49.61,0-30.66,19.32-51.79,50.08-51.79,27.81,0,43.33,16.81,43.33,42.16a49.45,49.45,0,0,1-.58,7.46H354.42l.26,2c3.87,29.46,20.86,39.64,37.28,39.64,9.33,0,17.62-3.34,25.32-8.35v3c-11.24,10.32-24.76,15.41-43,15.41Zm16.51-56.87C391.79,64.3,386,51.2,375,51.2c-11.59,0-19.94,15.37-20.58,40.45Z"/><path class="cls-1" d="M482.12,148.32c-29.57,0-49.29-18-49.29-49.61,0-30.66,19.32-51.79,50.08-51.79,27.81,0,43.33,16.81,43.33,42.16a49.45,49.45,0,0,1-.58,7.46H462.3l.26,2c3.88,29.46,20.86,39.64,37.28,39.64,9.33,0,17.62-3.34,25.32-8.35v3c-11.24,10.32-24.76,15.41-43,15.41Zm16.51-56.87c1.05-27.15-4.71-40.25-15.72-40.25-11.59,0-19.94,15.37-20.58,40.45Z"/><path class="cls-1" d="M537.25,145.71V141.6l6-1.29c7.1-1.53,8-6.49,8-14.49V33.72c0-10.16-1.14-15.92-8-16.21l-5.19-.22V14.92L579.4,0V125.82c0,8,1.11,13,8.21,14.49l6.06,1.29v4.11Z"/></g></g></svg>